<svg xmlns="http://www.w3.org/2000/svg" width="96" height="96" viewBox="0 0 96 96">
  <metadata><?xpacket begin="﻿" id="W5M0MpCehiHzreSzNTczkc9d"?>
<x:xmpmeta xmlns:x="adobe:ns:meta/" x:xmptk="Adobe XMP Core 5.6-c142 79.160924, 2017/07/13-01:06:39        ">
   <rdf:RDF xmlns:rdf="http://www.w3.org/1999/02/22-rdf-syntax-ns#">
      <rdf:Description rdf:about=""/>
   </rdf:RDF>
</x:xmpmeta>
                                                                                                    
                                                                                                    
                                                                                                    
                                                                                                    
                                                                                                    
                                                                                                    
                                                                                                    
                                                                                                    
                                                                                                    
                                                                                                    
                                                                                                    
                                                                                                    
                                                                                                    
                                                                                                    
                                                                                                    
                                                                                                    
                                                                                                    
                                                                                                    
                                                                                                    
                                                                                                    
                           
<?xpacket end="w"?></metadata>
<defs>
    <style>
      .cls-1 {
        fill-rule: evenodd;
      }
    </style>
  </defs>
  <path id="Icon" class="cls-1" d="M79.963,65.45q-0.007-.209-0.015-0.419t-0.015-.422l0-.106,0-.053V64.312l0-.022-0.014-.176q-0.027-.352-0.055-0.706l-0.014-.178L79.82,63l-0.043-.461q-0.022-.23-0.045-0.458-0.012-.114-0.023-0.228l-0.028-.21c-0.077-.556-0.145-1.1-0.243-1.626-0.046-.263-0.089-0.521-0.137-0.773l-0.153-.736c-0.094-.478-0.213-0.925-0.313-1.338l-0.075-.3-0.08-.287-0.15-.529c-0.048-.166-0.09-0.322-0.134-0.464l-0.125-.391-0.14-.435a0.332,0.332,0,0,0-.407-0.217L66.9,57.627a0.332,0.332,0,0,0-.236.38l0.04,0.216,0.051,0.269c0.018,0.1.031,0.206,0.049,0.32l0.055,0.363c0.01,0.064.021,0.129,0.03,0.2l0.024,0.207c0.03,0.282.075,0.584,0.1,0.909,0.013,0.161.027,0.327,0.041,0.5s0.016,0.343.025,0.52c0.023,0.351.019,0.717,0.026,1.086l0,0.137,0,0.122q0,0.122-.008.244l-0.007.244,0,0.122-0.007.175q-0.015.354-.03,0.707l-0.007.176v0.028c0,0.026,0-.21,0-0.108v0.009l0,0.035-0.006.07q-0.013.139-.025,0.276l-0.024.274-0.032.27c-0.023.179-.037,0.356-0.066,0.528L66.8,66.4l-0.084.483c-0.025.157-.058,0.308-0.087,0.455s-0.055.288-.087,0.423l-0.089.386-0.041.177-0.04.143-0.022.082H79.588a0.331,0.331,0,0,0,.332-0.317s0,0,0,0l0.034-.759q0.007-.388.015-0.791c0.008-.269,0-0.541,0-0.817Q79.965,65.659,79.963,65.45Zm-3.441-13.9A0.332,0.332,0,0,0,76.7,51.1l-0.127-.269-0.15-.317-0.229-.466-0.262-.528c-0.047-.1-0.093-0.176-0.141-0.267l-0.147-.272c-0.1-.185-0.2-0.378-0.315-0.576L74.974,47.8l-0.185-.316-0.2-.318-0.412-.654c-0.295-.435-0.588-0.889-0.916-1.332l-0.242-.335L72.9,44.677l-0.127-.165-0.511-.661c-0.173-.218-0.353-0.432-0.529-0.646-0.089-.106-0.175-0.215-0.266-0.319l-0.272-.31-0.27-.307c-0.089-.1-0.179-0.2-0.272-0.3l-0.543-.579c-0.178-.189-0.363-0.367-0.539-0.545s-0.349-.351-0.525-0.512l-0.507-.474c-0.163-.154-0.329-0.293-0.484-0.431l-0.448-.392-0.415-.342-0.365-.3c-0.113-.092-0.221-0.172-0.316-0.247l-0.349-.268a0.332,0.332,0,0,0-.458.052L59.9,44.964a0.332,0.332,0,0,0,.022.447l0.168,0.166c0.06,0.061.13,0.125,0.2,0.2l0.23,0.243L60.778,46.3l0.279,0.315c0.1,0.111.2,0.221,0.3,0.343l0.312,0.376c0.109,0.127.213,0.264,0.321,0.4s0.221,0.278.328,0.425l0.327,0.449c0.056,0.075.11,0.152,0.162,0.231l0.16,0.236,0.162,0.237c0.054,0.079.1,0.163,0.156,0.244,0.1,0.164.209,0.325,0.31,0.491l0.294,0.5,0.073,0.124L64.033,50.8l0.137,0.251c0.188,0.33.347,0.669,0.514,0.989l0.224,0.482,0.109,0.233,0.1,0.231L65.3,53.422l0.163,0.418,0.077,0.2c0.024,0.063.053,0.13,0.069,0.182l0.106,0.31,0.1,0.271,0.106,0.316L66.015,55.4a0.332,0.332,0,0,0,.439.2ZM46.951,38.99l0.291,0.04,0.341,0.059,0.387,0.066c0.118,0.02.241,0.048,0.369,0.075L52,31.73l-0.538-.084c-0.121-.018-0.24-0.039-0.359-0.053l-0.352-.043-0.673-.08-0.63-.054c-0.2-.015-0.395-0.036-0.579-0.045l-0.523-.026-0.459-.022-0.39-.006-0.419,0a0.332,0.332,0,0,0-.335.316L46.411,38.61a0.332,0.332,0,0,0,.286.345Zm9.85,3.844,0.28,0.2,0.246,0.176c0.033,0.023.087,0.064,0.132,0.1l0.131,0.1,0.238,0.178A0.332,0.332,0,0,0,58.3,43.5l4.785-7.293a0.332,0.332,0,0,0-.112-0.47l-0.257-.148-0.142-.081-0.169-.1-0.441-.243-0.5-.273-0.529-.265c-0.185-.09-0.374-0.191-0.577-0.282l-0.625-.286c-0.213-.1-0.438-0.192-0.666-0.288s-0.459-.2-0.7-0.287l-0.184-.07L56.12,42.383c0.114,0.072.222,0.148,0.328,0.216ZM40.526,38.954c0.092-.012.183-0.027,0.274-0.037l0.268-.027,0.513-.053,0.481-.032,0.226-.015c0.073-.005.147-0.011,0.21-0.011l0.369-.01,0.323-.01,0.338,0,0.3,0a0.332,0.332,0,0,0,.329-0.354l-0.431-6.577a0.332,0.332,0,0,0-.373-0.308l-0.295.037-0.343.044-0.477.071-0.541.082c-0.1.014-.187,0.032-0.282,0.05l-0.288.055-0.611.118-0.649.148-0.338.078c-0.114.027-.228,0.059-0.344,0.089l-0.708.189-0.725.219c-0.122.038-.245,0.073-0.368,0.114l-0.368.126-0.37.127c-0.124.042-.248,0.085-0.37,0.133l-0.739.282c-0.245.1-.487,0.2-0.729,0.3-0.121.051-.242,0.1-0.361,0.154l-0.354.163-0.35.162c-0.116.054-.232,0.107-0.344,0.165l-0.668.337c-0.219.11-.429,0.232-0.636,0.343s-0.41.222-.6,0.34l-0.562.334c-0.182.106-.351,0.221-0.516,0.325l-0.471.3-0.416.286-0.365.251c-0.113.078-.212,0.155-0.3,0.221l-0.317.234a0.332,0.332,0,0,0-.077.454l2.729,4.015a0.332,0.332,0,0,0,.438.1l0.245-.138c0.081-.045.17-0.1,0.269-0.15l0.322-.168,0.365-.191,0.412-.2c0.144-.067.29-0.144,0.448-0.211l0.484-.213c0.165-.076.339-0.142,0.515-0.213s0.355-.146.541-0.212l0.564-.2c0.095-.036.192-0.066,0.289-0.1l0.293-.094,0.295-.1c0.1-.03.2-0.057,0.3-0.086,0.2-.055.4-0.117,0.6-0.169l0.606-.15c0.1-.027.2-0.047,0.3-0.068l0.3-.063,0.3-.063c0.1-.02.2-0.035,0.3-0.053l0.582-.1Zm-18.61,5.191L21.7,44.45l-0.217.307c-0.072.1-.14,0.21-0.21,0.315-0.138.211-.28,0.421-0.415,0.635l-0.4.646-0.1.161-0.093.163L20.084,47c-0.252.428-.471,0.866-0.693,1.282l-0.305.624-0.147.3-0.135.3-0.257.573-0.224.542c-0.07.174-.142,0.339-0.2,0.5l-0.17.455-0.149.4-0.117.343-0.117.348a0.332,0.332,0,0,0,.2.416l2.54,0.974a0.332,0.332,0,0,0,.418-0.167l0.132-.276,0.14-.291,0.175-.337,0.2-.383c0.07-.134.151-0.272,0.232-0.418l0.254-.452,0.286-.475,0.149-.247,0.16-.249,0.331-.511c0.239-.338.473-0.695,0.736-1.039l0.194-.261,0.1-.131,0.1-.128,0.409-.515c0.139-.169.283-0.335,0.423-0.5,0.071-.083.139-0.167,0.212-0.248l0.218-.24,0.215-.238c0.071-.079.142-0.158,0.216-0.232l0.432-.448c0.142-.147.289-0.283,0.429-0.42s0.276-.272.416-0.4l0.4-.365c0.128-.119.261-0.225,0.383-0.331l0.353-.3,0.313-.248L28.6,44c0.039-.032.091-0.071,0.136-0.1l0.13-.1,0.237-.179a0.332,0.332,0,0,0,.052-0.481l-2.892-3.39a0.332,0.332,0,0,0-.483-0.024l-0.214.206-0.117.113c-0.042.041-.082,0.078-0.134,0.131L25,40.493l-0.363.369-0.374.406c-0.129.142-.268,0.286-0.4,0.443l-0.418.485c-0.145.164-.286,0.341-0.43,0.52s-0.294.36-.439,0.55l-0.438.58C22.059,43.942,21.987,44.043,21.916,44.145ZM16.66,56.031l-0.059.291-0.068.335c-0.024.125-.048,0.272-0.075,0.423l-0.083.484c-0.014.085-.03,0.173-0.044,0.261l-0.037.27c-0.047.368-.11,0.763-0.146,1.186l-0.064.648c-0.018.221-.03,0.448-0.046,0.677C16,61.065,16,61.541,15.981,62.023l0,0.181v0.182l0,0.365c0,0.122,0,.244,0,0.366V63.3l0.007,0.183,0.03,0.731L16.026,64.4l0,0.059,0,0.044,0.006,0.087,0.026,0.349q0.013,0.174.026,0.346l0.035,0.358,0.035,0.353,0.017,0.174,0.022,0.17L16.282,67l0.1,0.634c0.03,0.206.068,0.405,0.1,0.6l0.009,0.046a0.332,0.332,0,0,0,.326.272h0.9a0.332,0.332,0,0,0,.332-0.352c0-.051-0.006-0.1-0.01-0.154-0.011-.186-0.025-0.377-0.029-0.575s-0.013-.4-0.02-0.607,0-.419,0-0.634q0-.081,0-0.162t0-.161q0-.161.007-0.324T18,65.255q0.008-.173.016-0.347t0.016-.35l0-.088,0-.044V64.421c0-.014,0,0.013,0,0.008V64.419l0-.021,0.014-.17,0.054-.682,0.014-.17,0.02-.17,0.039-.339,0.039-.337,0.019-.168,0.025-.167c0.068-.443.126-0.878,0.211-1.3,0.04-.209.075-0.415,0.116-0.615l0.13-.584c0.078-.38.18-0.734,0.263-1.061l0.062-.24c0.021-.077.045-0.15,0.066-0.222l0.122-.408c0.039-.129.071-0.245,0.109-0.361l0.108-.325,0.094-.282a0.332,0.332,0,0,0-.23-0.425l-2.244-.6A0.332,0.332,0,0,0,16.66,56.031Zm25.407,11.64a5.161,5.161,0,0,0,6.91-2.374,5.428,5.428,0,0,0,.393-1.11l5.226-22.7,1.99-8.643,1.233-5.354a0.847,0.847,0,0,0-.849-1.048,0.813,0.813,0,0,0-.747.482l-2.509,5.135-3.7,7.575L39.7,60.757A5.171,5.171,0,0,0,42.067,67.672Zm2.457-7.309A2.534,2.534,0,1,1,41.992,62.9,2.533,2.533,0,0,1,44.524,60.363Z"/>
</svg>
