<svg xmlns="http://www.w3.org/2000/svg" width="62" height="49" viewBox="0 0 62 49">
  <metadata><?xpacket begin="﻿" id="W5M0MpCehiHzreSzNTczkc9d"?>
<x:xmpmeta xmlns:x="adobe:ns:meta/" x:xmptk="Adobe XMP Core 5.6-c142 79.160924, 2017/07/13-01:06:39        ">
   <rdf:RDF xmlns:rdf="http://www.w3.org/1999/02/22-rdf-syntax-ns#">
      <rdf:Description rdf:about=""/>
   </rdf:RDF>
</x:xmpmeta>
                                                                                                    
                                                                                                    
                                                                                                    
                                                                                                    
                                                                                                    
                                                                                                    
                                                                                                    
                                                                                                    
                                                                                                    
                                                                                                    
                                                                                                    
                                                                                                    
                                                                                                    
                                                                                                    
                                                                                                    
                                                                                                    
                                                                                                    
                                                                                                    
                                                                                                    
                                                                                                    
                           
<?xpacket end="w"?></metadata>
<defs>
    <style>
      .cls-1 {
        fill-rule: evenodd;
      }
    </style>
  </defs>
  <path id="Icon" class="cls-1" d="M52.121,9.569a2.358,2.358,0,0,0-3-.281C45.6,11.693,27.9,23.786,26,25.688a7.074,7.074,0,0,0,10,10c1.9-1.9,13.995-19.6,16.4-23.127A2.359,2.359,0,0,0,52.121,9.569ZM32.667,32.357a2.358,2.358,0,0,1-3.335-3.334c0.739-.73,5.764-4.314,11.946-8.611C36.981,26.594,33.4,31.618,32.667,32.357Zm-20.976,9.3-2.911,1.42A25.347,25.347,0,0,1,7.191,21.649l3.336,1.6A2.358,2.358,0,1,0,12.566,19l-3.293-1.58A25.5,25.5,0,0,1,28.642,5.332V8.878a2.358,2.358,0,0,0,4.716,0V5.33a25.172,25.172,0,0,1,8.108,2.136,2.358,2.358,0,1,0,1.94-4.3A30.157,30.157,0,0,0,5.931,47.445a2.358,2.358,0,0,0,2.994.809L13.759,45.9A2.358,2.358,0,0,0,11.692,41.657ZM58.522,18.283a2.358,2.358,0,0,0-4.3,1.94,25.383,25.383,0,0,1-1.014,22.871L50.17,41.648a2.358,2.358,0,0,0-2.028,4.258l4.952,2.358a2.357,2.357,0,0,0,2.974-.818A30.111,30.111,0,0,0,58.522,18.283Z"/>
</svg>
