<svg xmlns="http://www.w3.org/2000/svg" width="96" height="96" viewBox="0 0 96 96">
  <metadata><?xpacket begin="﻿" id="W5M0MpCehiHzreSzNTczkc9d"?>
<x:xmpmeta xmlns:x="adobe:ns:meta/" x:xmptk="Adobe XMP Core 5.6-c142 79.160924, 2017/07/13-01:06:39        ">
   <rdf:RDF xmlns:rdf="http://www.w3.org/1999/02/22-rdf-syntax-ns#">
      <rdf:Description rdf:about=""/>
   </rdf:RDF>
</x:xmpmeta>
                                                                                                    
                                                                                                    
                                                                                                    
                                                                                                    
                                                                                                    
                                                                                                    
                                                                                                    
                                                                                                    
                                                                                                    
                                                                                                    
                                                                                                    
                                                                                                    
                                                                                                    
                                                                                                    
                                                                                                    
                                                                                                    
                                                                                                    
                                                                                                    
                                                                                                    
                                                                                                    
                           
<?xpacket end="w"?></metadata>
<defs>
    <style>
      .cls-1 {
        fill-rule: evenodd;
      }
    </style>
  </defs>
  <path id="Gear_Icon" data-name="Gear Icon" class="cls-1" d="M48,0A48,48,0,1,0,96,48,48.054,48.054,0,0,0,48,0Zm0,92.16A44.16,44.16,0,1,1,92.16,48,44.21,44.21,0,0,1,48,92.16ZM72.96,17.28a5.758,5.758,0,0,0-5.76,5.744v17.3H61.44v-17.3a5.76,5.76,0,0,0-11.52,0v17.3H44.16v-17.3a5.76,5.76,0,0,0-11.52,0v17.3H26.88V30.7a5.76,5.76,0,0,0-11.52,0V51.84a1.92,1.92,0,0,0,1.92,1.92H32.64V72.976a5.76,5.76,0,0,0,11.52,0V53.76h5.76V72.976a5.76,5.76,0,0,0,11.52,0V53.76H67.2V72.976a5.76,5.76,0,0,0,11.52,0V23.024A5.758,5.758,0,0,0,72.96,17.28Zm1.92,55.7a1.891,1.891,0,0,1-1.92,1.9,1.914,1.914,0,0,1-1.92-1.9V51.84a1.92,1.92,0,0,0-1.92-1.92h-9.6a1.92,1.92,0,0,0-1.92,1.92V72.976a1.892,1.892,0,0,1-1.92,1.9,1.914,1.914,0,0,1-1.92-1.9V51.84a1.92,1.92,0,0,0-1.92-1.92h-9.6a1.92,1.92,0,0,0-1.92,1.92V72.976a1.891,1.891,0,0,1-1.92,1.9,1.914,1.914,0,0,1-1.92-1.9V51.84a1.92,1.92,0,0,0-1.92-1.92H19.2V30.7a1.892,1.892,0,0,1,1.92-1.9,1.915,1.915,0,0,1,1.92,1.9V42.24a1.92,1.92,0,0,0,1.92,1.92h9.6a1.92,1.92,0,0,0,1.92-1.92V23.024a1.892,1.892,0,0,1,1.92-1.9,1.914,1.914,0,0,1,1.92,1.9V42.24a1.92,1.92,0,0,0,1.92,1.92h9.6a1.92,1.92,0,0,0,1.92-1.92V23.024a1.892,1.892,0,0,1,1.92-1.9,1.914,1.914,0,0,1,1.92,1.9V42.24a1.92,1.92,0,0,0,1.92,1.92h9.6a1.92,1.92,0,0,0,1.92-1.92V23.024a1.892,1.892,0,0,1,1.92-1.9,1.914,1.914,0,0,1,1.92,1.9V72.976h0Z"/>
</svg>
