<svg xmlns="http://www.w3.org/2000/svg" width="48" height="48" viewBox="0 0 48 48">
  <metadata><?xpacket begin="﻿" id="W5M0MpCehiHzreSzNTczkc9d"?>
<x:xmpmeta xmlns:x="adobe:ns:meta/" x:xmptk="Adobe XMP Core 5.6-c142 79.160924, 2017/07/13-01:06:39        ">
   <rdf:RDF xmlns:rdf="http://www.w3.org/1999/02/22-rdf-syntax-ns#">
      <rdf:Description rdf:about=""/>
   </rdf:RDF>
</x:xmpmeta>
                                                                                                    
                                                                                                    
                                                                                                    
                                                                                                    
                                                                                                    
                                                                                                    
                                                                                                    
                                                                                                    
                                                                                                    
                                                                                                    
                                                                                                    
                                                                                                    
                                                                                                    
                                                                                                    
                                                                                                    
                                                                                                    
                                                                                                    
                                                                                                    
                                                                                                    
                                                                                                    
                           
<?xpacket end="w"?></metadata>
<defs>
    <style>
      .cls-1 {
        fill-rule: evenodd;
      }
    </style>
  </defs>
  <path id="Icon" class="cls-1" d="M21.28,15.665a4.783,4.783,0,0,0,.263.483c0.088,0.132.219,0.263,0.307,0.395a3.953,3.953,0,0,0,.439.395,1.476,1.476,0,0,0,.526.263,2.174,2.174,0,0,0,.57.176,2.7,2.7,0,0,0,.57.044,2.505,2.505,0,0,0,.57-0.044,1.574,1.574,0,0,0,.483-0.176h0.044a3.262,3.262,0,0,0,.526-0.307,2.849,2.849,0,0,0,.395-0.351l0.044-.044a2.414,2.414,0,0,0,.307-0.395,1.373,1.373,0,0,0,.219-0.439,0.088,0.088,0,0,1,.044-0.088,2.829,2.829,0,0,0,.175-0.57,2.5,2.5,0,0,0,.044-0.57,2.5,2.5,0,0,0-.044-0.57,4.055,4.055,0,0,0-.175-0.57,2.487,2.487,0,0,0-.526-0.79l-0.088-.088a3.842,3.842,0,0,0-.439-0.351c-0.175-.088-0.307-0.176-0.483-0.263a2.477,2.477,0,0,0-.526-0.175,2.7,2.7,0,0,0-.57-0.044,2.5,2.5,0,0,0-.57.044,2.477,2.477,0,0,0-.526.175H22.816a4.782,4.782,0,0,0-.483.263,3.833,3.833,0,0,0-.439.351,2.837,2.837,0,0,0-.351.395,4.783,4.783,0,0,0-.263.483,2.465,2.465,0,0,0-.175.526,2.7,2.7,0,0,0-.044.57,2.5,2.5,0,0,0,.044.57A3.972,3.972,0,0,0,21.28,15.665Zm6.1,16.056H26.369V20.973a1.133,1.133,0,0,0-1.141-1.141H20.622a1.133,1.133,0,0,0-1.141,1.141v2.369a1.133,1.133,0,0,0,1.141,1.141h0.921v7.282H20.622a1.133,1.133,0,0,0-1.141,1.141v2.369a1.133,1.133,0,0,0,1.141,1.141h6.756a1.133,1.133,0,0,0,1.141-1.141V32.906A1.171,1.171,0,0,0,27.378,31.721ZM24,0A24,24,0,1,0,48,24,24,24,0,0,0,24,0Zm0,44.835A20.838,20.838,0,1,1,44.838,24,20.857,20.857,0,0,1,24,44.838Z"/>
</svg>
