<svg xmlns="http://www.w3.org/2000/svg" width="511" height="512" viewBox="0 0 511 512">
  <metadata><?xpacket begin="﻿" id="W5M0MpCehiHzreSzNTczkc9d"?>
<x:xmpmeta xmlns:x="adobe:ns:meta/" x:xmptk="Adobe XMP Core 5.6-c142 79.160924, 2017/07/13-01:06:39        ">
   <rdf:RDF xmlns:rdf="http://www.w3.org/1999/02/22-rdf-syntax-ns#">
      <rdf:Description rdf:about=""/>
   </rdf:RDF>
</x:xmpmeta>
                                                                                                    
                                                                                                    
                                                                                                    
                                                                                                    
                                                                                                    
                                                                                                    
                                                                                                    
                                                                                                    
                                                                                                    
                                                                                                    
                                                                                                    
                                                                                                    
                                                                                                    
                                                                                                    
                                                                                                    
                                                                                                    
                                                                                                    
                                                                                                    
                                                                                                    
                                                                                                    
                           
<?xpacket end="w"?></metadata>
<defs>
    <style>
      .cls-1 {
        fill: #e0e0e0;
        fill-rule: evenodd;
      }
    </style>
  </defs>
  <path id="Icon" class="cls-1" d="M135.65,299.622a24.692,24.692,0,0,1,2.878-11.587H103.353V471.342a23.258,23.258,0,0,0,46.516,0V322.077A24.882,24.882,0,0,1,135.65,299.622ZM78.028,264.508c-0.083-.032-0.166-0.059-0.25-0.093L47.216,252.267s-0.422,19.255-.422,219.074a23.258,23.258,0,0,0,46.517,0V287.325A20.838,20.838,0,0,1,78.028,264.508ZM98.07,0a40.137,40.137,0,1,0,40.169,40.137A40.147,40.147,0,0,0,98.07,0Zm79.7,167.453H117.651a4.836,4.836,0,0,0-4.73,3.877l-6.171,30.928a34.323,34.323,0,0,1-12.8,64.4,4.78,4.78,0,0,0,4.766,5.35h60.114a4.839,4.839,0,0,0,4.731-3.879L182.5,173.214A4.822,4.822,0,0,0,177.766,167.453Zm96.267-28.136L212.8,142.145l-65.529-41.372a19.39,19.39,0,0,0-10.353-3H46.212a45.947,45.947,0,0,0-45.865,45.6C0.287,155.2.1,192.2,0.041,204.159A19.365,19.365,0,0,0,12.257,222.25L83.321,250.5a19.367,19.367,0,1,0,14.325-35.988l-58.78-23.367c0.083-16.437.044-8.7,0.239-47.573v0a4.064,4.064,0,0,1,8.112.355v34.424l44.424,17.659L97.191,168.2a20.91,20.91,0,0,1,20.459-16.769h60.114a20.851,20.851,0,0,1,20.46,24.92l-0.422,2.118a54.284,54.284,0,0,0,17.789,2.259c4.207-.16,9.491-0.373,15.045-0.629a52.82,52.82,0,0,1,43.6-38.131Q274.1,140.651,274.033,139.317Zm123.2,189.03V454.276a11.91,11.91,0,0,0,23.82,0V328.347h-23.82Zm-162.6,0V454.276h0a11.91,11.91,0,0,0,23.82,0V328.347h-23.82Zm42.726,0V471.9h0a22.7,22.7,0,0,0,45.4,0V328.347h-45.4Zm55.2,0V471.9h0a22.7,22.7,0,0,0,45.4,0V328.347h-45.4Zm-160.724-3.869V494.4a17.606,17.606,0,0,0,35.211,0V324.478H171.837ZM327.657,97.266a39.17,39.17,0,0,0-34.289,58.168A36.237,36.237,0,0,1,345.4,171.37,39.167,39.167,0,0,0,327.657,97.266Zm171.87,190.894H429.668a18.886,18.886,0,0,0,10.624-21.987c-1.945-7.527-16.807-65.036-18.716-72.425a50.323,50.323,0,0,0-44.024-37.5,53.972,53.972,0,0,1-28.929,29.593,36.547,36.547,0,0,1-2.754,14.269l-15.811,38.2a36.075,36.075,0,0,1,13.98-3.588l10.73-25.937a8.8,8.8,0,0,1,16.271,6.721l-7.931,19.171h14.439V204.138a3.758,3.758,0,0,1,7.4-.938c6.007,23.25,6.521,25.235,12.609,48.8H352.6a18.894,18.894,0,0,0-7.686,36.165H285.03a18.885,18.885,0,0,0,9.8-10.039l35.02-84.629a18.914,18.914,0,0,0-34.962-14.446L283.571,206.4l-9.338-24.608,8.372-16.187a53.6,53.6,0,0,1-4.859-9.38,38.242,38.242,0,0,0-33.695,45.644l14.758,72.789a18.907,18.907,0,0,0,10.83,13.509H160.522a11.463,11.463,0,1,0,0,22.926H451.965V494.408a17.606,17.606,0,0,0,35.211,0V311.085h12.349A11.463,11.463,0,1,0,499.527,288.159Z"/>
</svg>
