<svg xmlns="http://www.w3.org/2000/svg" width="242" height="141" viewBox="0 0 242 141">
  <metadata><?xpacket begin="﻿" id="W5M0MpCehiHzreSzNTczkc9d"?>
<x:xmpmeta xmlns:x="adobe:ns:meta/" x:xmptk="Adobe XMP Core 5.6-c142 79.160924, 2017/07/13-01:06:39        ">
   <rdf:RDF xmlns:rdf="http://www.w3.org/1999/02/22-rdf-syntax-ns#">
      <rdf:Description rdf:about=""/>
   </rdf:RDF>
</x:xmpmeta>
                                                                                                    
                                                                                                    
                                                                                                    
                                                                                                    
                                                                                                    
                                                                                                    
                                                                                                    
                                                                                                    
                                                                                                    
                                                                                                    
                                                                                                    
                                                                                                    
                                                                                                    
                                                                                                    
                                                                                                    
                                                                                                    
                                                                                                    
                                                                                                    
                                                                                                    
                                                                                                    
                           
<?xpacket end="w"?></metadata>
<defs>
    <style>
      .cls-1 {
        fill-rule: evenodd;
      }
    </style>
  </defs>
  <path id="Icon" class="cls-1" d="M237.139,0.155H221.12a4,4,0,0,0-4,4V42.382a15.867,15.867,0,0,0-8.009-2.224h-6.168a23.985,23.985,0,0,0-35.781-31.95q-0.176.2-.346,0.4a3.9,3.9,0,0,0-1.758-.448H88.962a47.2,47.2,0,0,0-41.281,24h-22.8v-4a4,4,0,0,0-4-4H4.861a4,4,0,0,0-4,4V136.162a4,4,0,0,0,4,4H20.88a4,4,0,0,0,4-4v-16h192.23v16a4,4,0,0,0,4,4h16.019a4,4,0,0,0,4-4V4.156A4,4,0,0,0,237.139.155Zm-52.062,8a16,16,0,1,1-16.019,16A16.01,16.01,0,0,1,185.077,8.156ZM169.058,42l0.268,0.24-0.268.144V42Zm8.009,6.16h32.039a8,8,0,1,1,0,16H177.067A8,8,0,1,1,177.067,48.158Zm-152.182-8h25.2a4.006,4.006,0,0,0,3.584-2.212A39.252,39.252,0,0,1,88.962,16.156h72.087v48H24.885v-24Zm0,32h192.23v16H24.885v-16Zm208.249,60h-8.009v-16a4,4,0,0,0-4-4H20.88a4,4,0,0,0-4,4v16H8.866V32.157h8.01v60a4,4,0,0,0,4,4H221.12a4,4,0,0,0,4-4v-84h8.009V132.162Z"/>
</svg>
