<svg xmlns="http://www.w3.org/2000/svg" width="96" height="96" viewBox="0 0 96 96">
  <metadata><?xpacket begin="﻿" id="W5M0MpCehiHzreSzNTczkc9d"?>
<x:xmpmeta xmlns:x="adobe:ns:meta/" x:xmptk="Adobe XMP Core 5.6-c142 79.160924, 2017/07/13-01:06:39        ">
   <rdf:RDF xmlns:rdf="http://www.w3.org/1999/02/22-rdf-syntax-ns#">
      <rdf:Description rdf:about=""/>
   </rdf:RDF>
</x:xmpmeta>
                                                                                                    
                                                                                                    
                                                                                                    
                                                                                                    
                                                                                                    
                                                                                                    
                                                                                                    
                                                                                                    
                                                                                                    
                                                                                                    
                                                                                                    
                                                                                                    
                                                                                                    
                                                                                                    
                                                                                                    
                                                                                                    
                                                                                                    
                                                                                                    
                                                                                                    
                                                                                                    
                           
<?xpacket end="w"?></metadata>
<defs>
    <style>
      .cls-1 {
        fill-rule: evenodd;
      }
    </style>
  </defs>
  <path id="Icon" class="cls-1" d="M33.5,51.243H16.641a1.149,1.149,0,0,1,0-2.3H31.363C32.143,49.795,32.878,50.591,33.5,51.243ZM79.44,63.2a3.4,3.4,0,0,1-.273.86,3,3,0,0,1-.255.432l-0.079.1-0.04.052c-0.007.011-.1,0.11-0.07,0.08l-0.1.111c-0.053.062-.181,0.179-0.287,0.275s-0.211.179-.307,0.255c-0.195.158-.39,0.283-0.589,0.419a12.248,12.248,0,0,1-1.224.688A18.052,18.052,0,0,1,70.7,68.106a24.929,24.929,0,0,1-3,.215c-1.009.02-2.031,0-3.069-.057a40.347,40.347,0,0,1-6.4-.832,21.377,21.377,0,0,1-6.548-2.447,12.232,12.232,0,0,1-1.532-1.112c-0.244-.209-0.481-0.435-0.708-0.673L49.1,62.833l-0.053-.062-0.034-.042-0.068-.084-0.136-.168c-0.182-.228-0.362-0.44-0.547-0.682l-0.556-.738c-0.355-.5-0.7-1-1.029-1.516-0.059-.093-0.113-0.19-0.172-0.284H29.616a1.149,1.149,0,0,1,0-2.3H52.48a1.149,1.149,0,0,1,0,2.3H49.344c0.094,0.134.187,0.269,0.281,0.4l0.492,0.653c0.167,0.219.361,0.448,0.539,0.67l0.136,0.168,0.068,0.084L50.9,61.276c-0.016-.018.013,0.014,0.018,0.019l0.246,0.27c0.17,0.176.348,0.347,0.537,0.508a9.84,9.84,0,0,0,1.225.886,19.384,19.384,0,0,0,5.813,2.154,38.044,38.044,0,0,0,6.023.793c0.984,0.053,1.954.077,2.9,0.06a22.731,22.731,0,0,0,2.729-.188,15.747,15.747,0,0,0,4.794-1.4,9.888,9.888,0,0,0,.987-0.55c0.145-.1.3-0.2,0.423-0.3,0.066-.05.136-0.1,0.168-0.136a1.21,1.21,0,0,0,.155-0.144L77,63.159l0,0,0.013-.016a0.679,0.679,0,0,0,.05-0.085,1.086,1.086,0,0,0,.083-0.272,2.523,2.523,0,0,0,0-.788,4.6,4.6,0,0,0-.578-1.644,2.875,2.875,0,0,0-.455-0.6,1.8,1.8,0,0,0-.439-0.193,12.7,12.7,0,0,0-1.681-.4c-0.57-.1-1.127-0.183-1.658-0.253-2.131-.275-3.845-0.408-5.013-0.518l-1.348-.126-0.147-.016a6.3,6.3,0,0,1-1.073.776c-0.266.161-.4,0.23-0.4,0.23l-0.016.008a0.991,0.991,0,0,1-1.158-1.574s0.114-.119.335-0.321,0.55-.493.83-0.814a2.1,2.1,0,0,0,.175-0.232,0.423,0.423,0,0,0,.036-0.058c0-.021-0.007-0.041-0.012-0.063-0.031-.143-0.077-0.319-0.133-0.5-0.225-.747-0.567-1.653-0.963-2.654s-0.865-2.114-1.386-3.318q-0.4-.9-0.824-1.877a5.709,5.709,0,0,1-.369-1.316c-0.073-.409-0.118-0.8-0.157-1.207a45.073,45.073,0,0,1-.13-4.994c0.019-.873.055-1.765,0.119-2.686,0.033-.462.072-0.928,0.129-1.415l0.05-.377,0.033-.209,0.032-.175,0-.021a0.991,0.991,0,0,0-.263-0.086,2.16,2.16,0,0,0-.921.037c-0.067.018-.167,0.05-0.2,0.063,0.005-.006-0.126.055-0.117,0.049l-0.144.071-0.633.33c-0.437.233-.89,0.474-1.357,0.709a19.816,19.816,0,0,1-3.023,1.273,7.921,7.921,0,0,1-1.813.359,4.778,4.778,0,0,1-1.051-.046q-0.414-.066-0.834-0.146a14.024,14.024,0,0,1-3.374-1.086c-0.27-.125-0.533-0.259-0.793-0.394S45.9,36.3,45.667,36.164a6.9,6.9,0,0,1-1.59-1.243,8.829,8.829,0,0,1-2.009-3.376,6.717,6.717,0,0,1-.241-1.033L41.8,30.192l-0.012-.155V29.764l0-.116,0.014-.24c0.042-.63.114-1.217,0.169-1.786a10.21,10.21,0,0,0,.068-1.567A2.012,2.012,0,0,0,42,25.777c-0.008-.035-0.016-0.064-0.022-0.084l0-.007a1.292,1.292,0,0,0-.293-0.3,1.891,1.891,0,0,0-1.026-.375,2.42,2.42,0,0,0-.6.041c-0.1.017-.208,0.054-0.313,0.077-0.094.039-.164,0.055-0.28,0.1l-0.206.1-0.1.048-0.021.01S39.1,25.4,39.1,25.4l-0.336.189c-0.235.151-.469,0.293-0.708,0.462-0.477.322-.956,0.68-1.435,1.038-0.957.723-1.913,1.484-2.873,2.251l-2.9,2.324-1.481,1.165-0.747.573c-0.258.2-.477,0.362-0.68,0.537a5.111,5.111,0,0,0-1.013,1.121,2.129,2.129,0,0,0-.365,1.147,2.511,2.511,0,0,0,.36,1.21,6.515,6.515,0,0,0,.964,1.25c0.156,0.165.328,0.33,0.5,0.491H25.256c-0.132-.189-0.26-0.383-0.378-0.593a4.848,4.848,0,0,1-.658-2.36,4.486,4.486,0,0,1,.724-2.39,7.41,7.41,0,0,1,1.477-1.658c0.27-.232.55-0.441,0.787-0.622l0.736-.563,1.452-1.141,2.9-2.318c0.967-.772,1.934-1.54,2.927-2.29,0.5-.373,1-0.745,1.528-1.1,0.257-.181.541-0.356,0.818-0.531l0.456-.257c0.038-.02-0.006,0,0.1-0.053l0.052-.024,0.1-.047,0.206-.1c0.163-.069.38-0.146,0.568-0.213,0.188-.048.371-0.105,0.565-0.139a4.736,4.736,0,0,1,1.2-.078,4.223,4.223,0,0,1,2.291.855,3.55,3.55,0,0,1,.889.979c0.034,0.06.087,0.163,0.12,0.24l0.072,0.187a3.418,3.418,0,0,1,.095.345,4.275,4.275,0,0,1,.082.6,12.079,12.079,0,0,1-.075,1.963c-0.059.6-.129,1.174-0.164,1.706l-0.011.19v0.271c0,0.028.007,0.04,0.009,0.061,0.006,0.037.01,0.075,0.013,0.113a4.453,4.453,0,0,0,.155.654,6.546,6.546,0,0,0,1.465,2.462,4.555,4.555,0,0,0,1.053.829c0.25,0.142.473,0.265,0.7,0.386s0.463,0.24.695,0.346a11.684,11.684,0,0,0,2.839.913q0.372,0.072.75,0.132a2.313,2.313,0,0,0,.541.022,5.673,5.673,0,0,0,1.279-.26,17.645,17.645,0,0,0,2.661-1.125c0.438-.22.872-0.451,1.313-0.686l0.685-.357,0.188-.092c0.122-.053.1-0.047,0.222-0.1a4.164,4.164,0,0,1,.5-0.164,4.44,4.44,0,0,1,1.957-.066,3.194,3.194,0,0,1,1.045.4,2.272,2.272,0,0,1,.929,1.067,2.1,2.1,0,0,1,.157.737,2.461,2.461,0,0,1-.012.345l-0.042.259-0.033.168-0.02.134-0.041.309c-0.051.426-.089,0.866-0.119,1.3-0.062.872-.1,1.735-0.116,2.575a42.98,42.98,0,0,0,.117,4.724c0.034,0.358.075,0.708,0.132,1.026a3.653,3.653,0,0,0,.2.779l0.832,1.9q0.791,1.831,1.41,3.382c0.41,1.037.762,1.963,1.028,2.847,0.066,0.223.127,0.444,0.178,0.685,0.02,0.1.037,0.2,0.053,0.311L67.528,56.1c1.169,0.108,2.892.237,5.11,0.518,0.555,0.072,1.142.156,1.764,0.266a14.741,14.741,0,0,1,2.013.478,5.339,5.339,0,0,1,.6.237,3.258,3.258,0,0,1,.349.194c0.06,0.037.132,0.09,0.2,0.142l0.11,0.095L77.749,58.1a5.147,5.147,0,0,1,.819,1.063,6.882,6.882,0,0,1,.885,2.508A4.816,4.816,0,0,1,79.44,63.2ZM41.988,25.714L41.975,25.7A0.038,0.038,0,0,0,41.988,25.714ZM60.96,35.384s0-.011,0,0a0.008,0.008,0,0,1,0,0h0ZM21.8,43.228h7.362c0.755,0.795,1.5,1.6,2.251,2.417L33.941,48.4c0.427,0.46.844,0.911,1.29,1.376l0.329,0.341L35.9,50.463a4.735,4.735,0,0,0,.971.737,6,6,0,0,0,2.166.695c0.677,0.1,1.278.135,1.8,0.224a3.866,3.866,0,0,1,1.333.439,3.345,3.345,0,0,1,.513.367l0.166,0.156L42.959,53.2c0.085,0.1.178,0.184,0.259,0.285a9.661,9.661,0,0,1,1.108,1.706h2.659a15.758,15.758,0,0,0-1.96-3.234c-0.11-.134-0.234-0.258-0.35-0.387l-0.089-.1-0.045-.048-0.069-.068L44.307,51.2a5.6,5.6,0,0,0-.96-0.7,6.234,6.234,0,0,0-2.115-.717c-0.684-.113-1.309-0.15-1.847-0.23a3.7,3.7,0,0,1-1.335-.405,2.38,2.38,0,0,1-.5-0.38l-0.308-.311-0.316-.327c-0.412-.429-0.837-0.887-1.255-1.337l-2.525-2.746c-0.252-.274-0.506-0.548-0.76-0.822H38.1a1.149,1.149,0,0,0,0-2.3H21.8A1.148,1.148,0,1,0,21.8,43.228Z"/>
</svg>
