<svg xmlns="http://www.w3.org/2000/svg" width="48" height="48" viewBox="0 0 48 48">
  <metadata><?xpacket begin="﻿" id="W5M0MpCehiHzreSzNTczkc9d"?>
<x:xmpmeta xmlns:x="adobe:ns:meta/" x:xmptk="Adobe XMP Core 5.6-c142 79.160924, 2017/07/13-01:06:39        ">
   <rdf:RDF xmlns:rdf="http://www.w3.org/1999/02/22-rdf-syntax-ns#">
      <rdf:Description rdf:about=""/>
   </rdf:RDF>
</x:xmpmeta>
                                                                                                    
                                                                                                    
                                                                                                    
                                                                                                    
                                                                                                    
                                                                                                    
                                                                                                    
                                                                                                    
                                                                                                    
                                                                                                    
                                                                                                    
                                                                                                    
                                                                                                    
                                                                                                    
                                                                                                    
                                                                                                    
                                                                                                    
                                                                                                    
                                                                                                    
                                                                                                    
                           
<?xpacket end="w"?></metadata>
<defs>
    <style>
      .cls-1 {
        fill-rule: evenodd;
      }
    </style>
  </defs>
  <path id="Icon" class="cls-1" d="M1.548,40.328a4.52,4.52,0,0,0,0,6.358,4.437,4.437,0,0,0,6.309,0L22.5,31.924l-6.309-6.358Zm36.6-27.36,6.37-3.325,3.342-6.507L44.746,0,38.292,3.366l-3.3,6.425-7.764,7.827L30.38,20.8ZM39.54,30.033l-0.6-.062a8.781,8.781,0,0,0-3.084.585L17.547,12.1a9.006,9.006,0,0,0,.579-3.109l-0.059-.606A8.925,8.925,0,0,0,9.207,0,8.792,8.792,0,0,0,5.383.9L11.309,6.87a2.972,2.972,0,0,1,.669,1.08,3.009,3.009,0,0,1-.669,3.158,3,3,0,0,1-4.2,0L1.179,5.135A8.921,8.921,0,0,0,8.606,17.923l0.6,0.058a8.849,8.849,0,0,0,3.084-.582L30.6,35.855a9.04,9.04,0,0,0-.578,3.109l0.061,0.606a8.921,8.921,0,0,0,8.859,8.387,8.746,8.746,0,0,0,3.824-.9l-5.926-5.974a2.981,2.981,0,0,1-.671-1.077,3.013,3.013,0,0,1,.671-3.161,2.958,2.958,0,0,1,2.1-.878,2.919,2.919,0,0,1,1.031.2,2.953,2.953,0,0,1,1.072.673l5.926,5.974A8.919,8.919,0,0,0,39.54,30.033Z"/>
</svg>
